<svg width="112" height="109" viewBox="0 0 112 109" fill="none" xmlns="http://www.w3.org/2000/svg">
<path d="M19.7669 0H91.8579C102.788 0 111.625 8.83697 111.625 19.7669V89.0673C111.625 99.9972 102.788 108.834 91.8579 108.834H19.7669C8.83696 108.834 0 99.9972 0 89.0673V19.7669C0 8.83697 8.83696 0 19.7669 0Z" fill="#001E36"/>
<path d="M25.1155 76.3235V28.4644C25.1155 28.1388 25.255 27.9527 25.5806 27.9527C26.3713 27.9527 27.1154 27.9527 28.1852 27.9062C29.3014 27.8597 30.4642 27.8597 31.7199 27.8132C32.9757 27.7667 34.3245 27.7667 35.7663 27.7202C37.2082 27.6737 38.6035 27.6737 39.9988 27.6737C43.8126 27.6737 46.9753 28.1388 49.5799 29.1155C51.9054 29.9062 54.0449 31.2085 55.8123 32.9293C57.3006 34.4177 58.4634 36.2316 59.2076 38.2315C59.9052 40.185 60.2773 42.1849 60.2773 44.2779C60.2773 48.2778 59.3471 51.58 57.4867 54.1846C55.6263 56.7892 53.0217 58.7426 49.9985 59.8588C46.8358 61.0216 43.3475 61.4402 39.5337 61.4402C38.4174 61.4402 37.6733 61.4402 37.2082 61.3937C36.7431 61.3472 36.0919 61.3472 35.2082 61.3472V76.277C35.2547 76.6026 35.0222 76.8816 34.6966 76.9281C34.6501 76.9281 34.6036 76.9281 34.5106 76.9281H25.6736C25.3015 76.9281 25.1155 76.7421 25.1155 76.3235ZM35.2547 36.9292V52.5567C35.9059 52.6032 36.5105 52.6497 37.0686 52.6497H39.5337C41.3476 52.6497 43.1615 52.3707 44.8824 51.8125C46.3707 51.394 47.673 50.5103 48.6962 49.3475C49.6729 48.1847 50.138 46.6034 50.138 44.5569C50.1846 43.1151 49.8125 41.6733 49.0683 40.4175C48.2776 39.2082 47.1614 38.278 45.8126 37.7664C44.0917 37.0688 42.2313 36.7897 40.3244 36.8362C39.1151 36.8362 38.0454 36.8362 37.1617 36.8827C36.2315 36.8362 35.5803 36.8827 35.2547 36.9292Z" fill="#31A8FF"/>
<path d="M89.2997 49.7196C87.9044 48.9754 86.4161 48.4638 84.8347 48.1382C83.1138 47.7662 81.3929 47.5336 79.6255 47.5336C78.6953 47.4871 77.7186 47.6266 76.8349 47.8592C76.2303 47.9987 75.7187 48.3243 75.3931 48.7894C75.1606 49.1615 75.021 49.6266 75.021 50.0452C75.021 50.4638 75.2071 50.8823 75.4861 51.2544C75.9047 51.766 76.4628 52.1846 77.0675 52.5102C78.1372 53.0683 79.2535 53.5799 80.3697 54.045C82.8813 54.8822 85.2998 56.045 87.5323 57.4403C89.0671 58.417 90.3229 59.7193 91.2066 61.3007C91.9508 62.789 92.3229 64.4169 92.2764 66.0912C92.3229 68.2772 91.6717 70.4632 90.4625 72.2771C89.1602 74.1375 87.3463 75.5793 85.2533 76.4165C82.9743 77.3932 80.1837 77.9049 76.8349 77.9049C74.6954 77.9049 72.6025 77.7188 70.5095 77.3002C68.8817 77.0212 67.2538 76.5095 65.7655 75.8119C65.4399 75.6259 65.2073 75.3003 65.2539 74.9282V66.8354C65.2539 66.6959 65.3004 66.5098 65.4399 66.4168C65.5794 66.3238 65.719 66.3703 65.8585 66.4633C67.6724 67.533 69.5793 68.2772 71.6258 68.7423C73.3932 69.2074 75.2536 69.44 77.114 69.44C78.8814 69.44 80.1372 69.2074 80.9743 68.7888C81.7185 68.4633 82.2301 67.6726 82.2301 66.8354C82.2301 66.1842 81.858 65.5796 81.1139 64.975C80.3697 64.3703 78.8349 63.6727 76.5559 62.789C74.1838 61.9518 71.9978 60.8356 69.9514 59.4403C68.5096 58.417 67.3003 57.0682 66.4166 55.4869C65.6724 53.9985 65.3004 52.3707 65.3469 50.7428C65.3469 48.7429 65.905 46.8359 66.9282 45.1151C68.091 43.2547 69.8119 41.7663 71.8118 40.8361C73.9978 39.7199 76.7419 39.2083 80.0441 39.2083C81.9511 39.2083 83.9045 39.3478 85.8114 39.6268C87.2067 39.8129 88.5555 40.185 89.8113 40.6966C89.9974 40.7431 90.1834 40.9291 90.2764 41.1152C90.3229 41.3012 90.3694 41.4873 90.3694 41.6733V49.2545C90.3694 49.4405 90.2764 49.6266 90.1369 49.7196C89.7183 49.8126 89.4857 49.8126 89.2997 49.7196Z" fill="#31A8FF"/>
</svg>
